<mxfile host="app.diagrams.net" modified="2023-09-18T14:36:04.248Z" agent="Mozilla/5.0 (Windows NT 10.0; Win64; x64) AppleWebKit/537.36 (KHTML, like Gecko) Chrome/116.0.0.0 Safari/537.36" version="21.6.8" etag="Y9895c4tK-SSX1n42DrM" type="device">
  <diagram id="qSZDKfDl3sMW_hITf1Ia" name="Page-1">
    <mxGraphModel dx="5731" dy="542" grid="1" gridSize="10" guides="1" tooltips="1" connect="1" arrows="1" fold="1" page="1" pageScale="1" pageWidth="4681" pageHeight="3300" math="0" shadow="0">
      <root>
        <mxCell id="0" />
        <mxCell id="1" parent="0" />
        <mxCell id="VwMd6SCtrzowL8fCk7NK-1" value="Reservation clerck" style="shape=umlActor;verticalLabelPosition=bottom;verticalAlign=top;html=1;outlineConnect=0;" parent="1" vertex="1">
          <mxGeometry x="30" y="40" width="30" height="60" as="geometry" />
        </mxCell>
        <mxCell id="VwMd6SCtrzowL8fCk7NK-5" value="" style="endArrow=none;dashed=1;html=1;rounded=0;dashPattern=8 8;" parent="1" edge="1">
          <mxGeometry width="50" height="50" relative="1" as="geometry">
            <mxPoint x="40" y="1120" as="sourcePoint" />
            <mxPoint x="40" y="123" as="targetPoint" />
          </mxGeometry>
        </mxCell>
        <mxCell id="VwMd6SCtrzowL8fCk7NK-7" style="edgeStyle=orthogonalEdgeStyle;rounded=0;orthogonalLoop=1;jettySize=auto;html=1;dashed=1;dashPattern=12 12;" parent="1" source="VwMd6SCtrzowL8fCk7NK-6" edge="1">
          <mxGeometry relative="1" as="geometry">
            <mxPoint x="250" y="1120" as="targetPoint" />
          </mxGeometry>
        </mxCell>
        <mxCell id="VwMd6SCtrzowL8fCk7NK-6" value="&amp;lt;View&amp;gt;&lt;br&gt;reservation window" style="rounded=0;whiteSpace=wrap;html=1;" parent="1" vertex="1">
          <mxGeometry x="190" y="20" width="120" height="60" as="geometry" />
        </mxCell>
        <mxCell id="VwMd6SCtrzowL8fCk7NK-8" value="Enter reservation detaisl(Date,room type)" style="endArrow=classic;html=1;rounded=0;" parent="1" edge="1">
          <mxGeometry x="0.0526" y="10" width="50" height="50" relative="1" as="geometry">
            <mxPoint x="40" y="160" as="sourcePoint" />
            <mxPoint x="230" y="160" as="targetPoint" />
            <Array as="points">
              <mxPoint x="140" y="160" />
            </Array>
            <mxPoint as="offset" />
          </mxGeometry>
        </mxCell>
        <mxCell id="VwMd6SCtrzowL8fCk7NK-9" value="&amp;lt;Controler&amp;gt;&lt;br&gt;Reservation handler" style="rounded=0;whiteSpace=wrap;html=1;" parent="1" vertex="1">
          <mxGeometry x="360" y="20" width="120" height="60" as="geometry" />
        </mxCell>
        <mxCell id="VwMd6SCtrzowL8fCk7NK-10" style="edgeStyle=orthogonalEdgeStyle;rounded=0;orthogonalLoop=1;jettySize=auto;html=1;dashed=1;dashPattern=12 12;" parent="1" edge="1">
          <mxGeometry relative="1" as="geometry">
            <mxPoint x="420" y="1110" as="targetPoint" />
            <mxPoint x="420" y="80" as="sourcePoint" />
          </mxGeometry>
        </mxCell>
        <mxCell id="VwMd6SCtrzowL8fCk7NK-12" value="Enter reservation detaisl(Date,room type)" style="endArrow=classic;html=1;rounded=0;" parent="1" edge="1">
          <mxGeometry x="0.0526" y="10" width="50" height="50" relative="1" as="geometry">
            <mxPoint x="250" y="180" as="sourcePoint" />
            <mxPoint x="420" y="180" as="targetPoint" />
            <Array as="points">
              <mxPoint x="350" y="180" />
            </Array>
            <mxPoint as="offset" />
          </mxGeometry>
        </mxCell>
        <mxCell id="VwMd6SCtrzowL8fCk7NK-13" value=":Room&amp;nbsp;" style="rounded=0;whiteSpace=wrap;html=1;" parent="1" vertex="1">
          <mxGeometry x="510" y="60" width="120" height="60" as="geometry" />
        </mxCell>
        <mxCell id="VwMd6SCtrzowL8fCk7NK-14" style="edgeStyle=orthogonalEdgeStyle;rounded=0;orthogonalLoop=1;jettySize=auto;html=1;dashed=1;dashPattern=12 12;" parent="1" edge="1">
          <mxGeometry relative="1" as="geometry">
            <mxPoint x="560" y="1120" as="targetPoint" />
            <mxPoint x="560" y="120" as="sourcePoint" />
          </mxGeometry>
        </mxCell>
        <mxCell id="VwMd6SCtrzowL8fCk7NK-15" value="listRoom : CheckRoomAvailable(date)" style="endArrow=classic;html=1;rounded=0;" parent="1" edge="1">
          <mxGeometry x="0.0526" y="10" width="50" height="50" relative="1" as="geometry">
            <mxPoint x="420" y="210" as="sourcePoint" />
            <mxPoint x="560" y="210" as="targetPoint" />
            <Array as="points">
              <mxPoint x="520" y="210" />
            </Array>
            <mxPoint as="offset" />
          </mxGeometry>
        </mxCell>
        <mxCell id="VwMd6SCtrzowL8fCk7NK-16" value="&amp;lt;&amp;lt;dataAccess&amp;gt;&amp;gt;&lt;br&gt;:Room&amp;nbsp;" style="rounded=0;whiteSpace=wrap;html=1;" parent="1" vertex="1">
          <mxGeometry x="670" y="60" width="120" height="60" as="geometry" />
        </mxCell>
        <mxCell id="VwMd6SCtrzowL8fCk7NK-17" style="edgeStyle=orthogonalEdgeStyle;rounded=0;orthogonalLoop=1;jettySize=auto;html=1;dashed=1;dashPattern=12 12;startArrow=none;" parent="1" source="VwMd6SCtrzowL8fCk7NK-66" edge="1">
          <mxGeometry relative="1" as="geometry">
            <mxPoint x="730" y="1120" as="targetPoint" />
            <mxPoint x="720" y="120" as="sourcePoint" />
            <Array as="points">
              <mxPoint x="730" y="1040" />
            </Array>
          </mxGeometry>
        </mxCell>
        <mxCell id="VwMd6SCtrzowL8fCk7NK-18" value="List of available rooms" style="endArrow=classic;html=1;rounded=0;" parent="1" edge="1">
          <mxGeometry width="50" height="50" relative="1" as="geometry">
            <mxPoint x="420" y="240" as="sourcePoint" />
            <mxPoint x="250" y="240" as="targetPoint" />
          </mxGeometry>
        </mxCell>
        <mxCell id="VwMd6SCtrzowL8fCk7NK-19" value="Select&amp;nbsp; room (Date, room type, price)" style="endArrow=classic;html=1;rounded=0;" parent="1" edge="1">
          <mxGeometry width="50" height="50" relative="1" as="geometry">
            <mxPoint x="40" y="280" as="sourcePoint" />
            <mxPoint x="250" y="280" as="targetPoint" />
          </mxGeometry>
        </mxCell>
        <mxCell id="VwMd6SCtrzowL8fCk7NK-20" value="Select&amp;nbsp; room (Date, room&lt;br&gt;&amp;nbsp;type,price)" style="endArrow=classic;html=1;rounded=0;" parent="1" edge="1">
          <mxGeometry x="-0.0588" y="20" width="50" height="50" relative="1" as="geometry">
            <mxPoint x="250" y="310" as="sourcePoint" />
            <mxPoint x="420" y="310" as="targetPoint" />
            <mxPoint as="offset" />
          </mxGeometry>
        </mxCell>
        <mxCell id="VwMd6SCtrzowL8fCk7NK-21" value="" style="endArrow=classic;html=1;rounded=0;" parent="1" edge="1">
          <mxGeometry width="50" height="50" relative="1" as="geometry">
            <mxPoint x="40" y="406" as="sourcePoint" />
            <mxPoint x="250" y="406" as="targetPoint" />
          </mxGeometry>
        </mxCell>
        <mxCell id="VwMd6SCtrzowL8fCk7NK-22" value="addNewGuest(ID, Name, Phone)" style="text;html=1;align=center;verticalAlign=middle;resizable=0;points=[];autosize=1;strokeColor=none;fillColor=none;" parent="1" vertex="1">
          <mxGeometry x="40" y="381" width="200" height="30" as="geometry" />
        </mxCell>
        <mxCell id="VwMd6SCtrzowL8fCk7NK-23" value="addNewGuest(ID, Name, Phone)" style="text;html=1;align=center;verticalAlign=middle;resizable=0;points=[];autosize=1;strokeColor=none;fillColor=none;" parent="1" vertex="1">
          <mxGeometry x="230" y="411" width="200" height="30" as="geometry" />
        </mxCell>
        <mxCell id="VwMd6SCtrzowL8fCk7NK-24" value="" style="endArrow=classic;html=1;rounded=0;entryX=0.96;entryY=1.3;entryDx=0;entryDy=0;entryPerimeter=0;" parent="1" target="VwMd6SCtrzowL8fCk7NK-23" edge="1">
          <mxGeometry width="50" height="50" relative="1" as="geometry">
            <mxPoint x="250" y="451" as="sourcePoint" />
            <mxPoint x="300" y="401" as="targetPoint" />
          </mxGeometry>
        </mxCell>
        <mxCell id="VwMd6SCtrzowL8fCk7NK-25" value=":Guest" style="rounded=0;whiteSpace=wrap;html=1;" parent="1" vertex="1">
          <mxGeometry x="830" y="90" width="120" height="60" as="geometry" />
        </mxCell>
        <mxCell id="VwMd6SCtrzowL8fCk7NK-26" style="edgeStyle=orthogonalEdgeStyle;rounded=0;orthogonalLoop=1;jettySize=auto;html=1;dashed=1;dashPattern=12 12;" parent="1" edge="1">
          <mxGeometry relative="1" as="geometry">
            <mxPoint x="880" y="1120" as="targetPoint" />
            <mxPoint x="880" y="150" as="sourcePoint" />
          </mxGeometry>
        </mxCell>
        <mxCell id="VwMd6SCtrzowL8fCk7NK-27" value="" style="endArrow=classic;html=1;rounded=0;" parent="1" edge="1">
          <mxGeometry width="50" height="50" relative="1" as="geometry">
            <mxPoint x="420" y="480" as="sourcePoint" />
            <mxPoint x="880" y="480" as="targetPoint" />
          </mxGeometry>
        </mxCell>
        <mxCell id="VwMd6SCtrzowL8fCk7NK-28" value="createNewGuest(ID, Name, Phone)" style="text;html=1;align=center;verticalAlign=middle;resizable=0;points=[];autosize=1;strokeColor=none;fillColor=none;" parent="1" vertex="1">
          <mxGeometry x="535" y="450" width="210" height="30" as="geometry" />
        </mxCell>
        <mxCell id="VwMd6SCtrzowL8fCk7NK-29" value="" style="endArrow=classic;html=1;rounded=0;" parent="1" edge="1">
          <mxGeometry width="50" height="50" relative="1" as="geometry">
            <mxPoint x="40" y="520" as="sourcePoint" />
            <mxPoint x="250" y="520" as="targetPoint" />
          </mxGeometry>
        </mxCell>
        <mxCell id="VwMd6SCtrzowL8fCk7NK-34" value="Search guest(ID)" style="text;html=1;strokeColor=none;fillColor=none;align=center;verticalAlign=middle;whiteSpace=wrap;rounded=0;" parent="1" vertex="1">
          <mxGeometry x="100" y="490" width="100" height="30" as="geometry" />
        </mxCell>
        <mxCell id="VwMd6SCtrzowL8fCk7NK-36" value="Search guest(ID)" style="text;html=1;strokeColor=none;fillColor=none;align=center;verticalAlign=middle;whiteSpace=wrap;rounded=0;" parent="1" vertex="1">
          <mxGeometry x="290" y="510" width="100" height="30" as="geometry" />
        </mxCell>
        <mxCell id="VwMd6SCtrzowL8fCk7NK-37" value="" style="endArrow=classic;html=1;rounded=0;" parent="1" edge="1">
          <mxGeometry width="50" height="50" relative="1" as="geometry">
            <mxPoint x="250" y="540" as="sourcePoint" />
            <mxPoint x="420" y="540" as="targetPoint" />
          </mxGeometry>
        </mxCell>
        <mxCell id="VwMd6SCtrzowL8fCk7NK-38" value="" style="endArrow=classic;html=1;rounded=0;" parent="1" edge="1">
          <mxGeometry width="50" height="50" relative="1" as="geometry">
            <mxPoint x="420" y="580" as="sourcePoint" />
            <mxPoint x="880" y="580" as="targetPoint" />
          </mxGeometry>
        </mxCell>
        <mxCell id="VwMd6SCtrzowL8fCk7NK-39" value="aGuest : Search guest (ID)" style="text;html=1;strokeColor=none;fillColor=none;align=center;verticalAlign=middle;whiteSpace=wrap;rounded=0;" parent="1" vertex="1">
          <mxGeometry x="560" y="550" width="160" height="30" as="geometry" />
        </mxCell>
        <mxCell id="VwMd6SCtrzowL8fCk7NK-40" value="" style="endArrow=classic;html=1;rounded=0;dashed=1;" parent="1" edge="1">
          <mxGeometry width="50" height="50" relative="1" as="geometry">
            <mxPoint x="880" y="640" as="sourcePoint" />
            <mxPoint x="420" y="640" as="targetPoint" />
          </mxGeometry>
        </mxCell>
        <mxCell id="VwMd6SCtrzowL8fCk7NK-41" value="(GuestID, Name, Phone)" style="text;html=1;align=center;verticalAlign=middle;resizable=0;points=[];autosize=1;strokeColor=none;fillColor=none;" parent="1" vertex="1">
          <mxGeometry x="520" y="615" width="160" height="30" as="geometry" />
        </mxCell>
        <mxCell id="VwMd6SCtrzowL8fCk7NK-42" value="" style="endArrow=classic;html=1;rounded=0;dashed=1;exitX=0.988;exitY=0.867;exitDx=0;exitDy=0;exitPerimeter=0;" parent="1" source="VwMd6SCtrzowL8fCk7NK-43" edge="1">
          <mxGeometry width="50" height="50" relative="1" as="geometry">
            <mxPoint x="610" y="655" as="sourcePoint" />
            <mxPoint x="250" y="656" as="targetPoint" />
          </mxGeometry>
        </mxCell>
        <mxCell id="VwMd6SCtrzowL8fCk7NK-43" value="(GuestID, Name, Phone)" style="text;html=1;align=center;verticalAlign=middle;resizable=0;points=[];autosize=1;strokeColor=none;fillColor=none;" parent="1" vertex="1">
          <mxGeometry x="260" y="630" width="160" height="30" as="geometry" />
        </mxCell>
        <mxCell id="VwMd6SCtrzowL8fCk7NK-44" value="" style="endArrow=classic;html=1;rounded=0;" parent="1" edge="1">
          <mxGeometry width="50" height="50" relative="1" as="geometry">
            <mxPoint x="40" y="720" as="sourcePoint" />
            <mxPoint x="240" y="720" as="targetPoint" />
          </mxGeometry>
        </mxCell>
        <mxCell id="VwMd6SCtrzowL8fCk7NK-45" value="Create reservation&amp;nbsp;" style="text;html=1;strokeColor=none;fillColor=none;align=center;verticalAlign=middle;whiteSpace=wrap;rounded=0;" parent="1" vertex="1">
          <mxGeometry x="90" y="680" width="120" height="30" as="geometry" />
        </mxCell>
        <mxCell id="VwMd6SCtrzowL8fCk7NK-46" value="" style="endArrow=classic;html=1;rounded=0;" parent="1" edge="1">
          <mxGeometry width="50" height="50" relative="1" as="geometry">
            <mxPoint x="250" y="750" as="sourcePoint" />
            <mxPoint x="420" y="750" as="targetPoint" />
          </mxGeometry>
        </mxCell>
        <mxCell id="VwMd6SCtrzowL8fCk7NK-47" value="Create reservation&amp;nbsp;" style="text;html=1;strokeColor=none;fillColor=none;align=center;verticalAlign=middle;whiteSpace=wrap;rounded=0;" parent="1" vertex="1">
          <mxGeometry x="270" y="720" width="120" height="30" as="geometry" />
        </mxCell>
        <mxCell id="VwMd6SCtrzowL8fCk7NK-51" value="" style="endArrow=classic;html=1;rounded=0;" parent="1" edge="1">
          <mxGeometry width="50" height="50" relative="1" as="geometry">
            <mxPoint x="420" y="780" as="sourcePoint" />
            <mxPoint x="1060" y="780" as="targetPoint" />
          </mxGeometry>
        </mxCell>
        <mxCell id="VwMd6SCtrzowL8fCk7NK-52" value=":Reservation&amp;nbsp;" style="rounded=0;whiteSpace=wrap;html=1;" parent="1" vertex="1">
          <mxGeometry x="1000" y="90" width="120" height="60" as="geometry" />
        </mxCell>
        <mxCell id="VwMd6SCtrzowL8fCk7NK-53" style="edgeStyle=orthogonalEdgeStyle;rounded=0;orthogonalLoop=1;jettySize=auto;html=1;dashed=1;dashPattern=12 12;" parent="1" edge="1">
          <mxGeometry relative="1" as="geometry">
            <mxPoint x="1061" y="1120" as="targetPoint" />
            <mxPoint x="1040" y="150" as="sourcePoint" />
          </mxGeometry>
        </mxCell>
        <mxCell id="VwMd6SCtrzowL8fCk7NK-54" value="Create reservation ()" style="text;html=1;strokeColor=none;fillColor=none;align=center;verticalAlign=middle;whiteSpace=wrap;rounded=0;" parent="1" vertex="1">
          <mxGeometry x="660" y="750" width="120" height="30" as="geometry" />
        </mxCell>
        <mxCell id="VwMd6SCtrzowL8fCk7NK-56" value="" style="endArrow=classic;html=1;rounded=0;dashed=1;dashPattern=12 12;" parent="1" edge="1">
          <mxGeometry width="50" height="50" relative="1" as="geometry">
            <mxPoint x="1050" y="820" as="sourcePoint" />
            <mxPoint x="420" y="820" as="targetPoint" />
          </mxGeometry>
        </mxCell>
        <mxCell id="VwMd6SCtrzowL8fCk7NK-57" value="Return reservation details()" style="text;html=1;strokeColor=none;fillColor=none;align=center;verticalAlign=middle;whiteSpace=wrap;rounded=0;" parent="1" vertex="1">
          <mxGeometry x="530" y="790" width="380" height="30" as="geometry" />
        </mxCell>
        <mxCell id="VwMd6SCtrzowL8fCk7NK-59" value="" style="endArrow=classic;html=1;rounded=0;" parent="1" edge="1">
          <mxGeometry width="50" height="50" relative="1" as="geometry">
            <mxPoint x="40" y="880" as="sourcePoint" />
            <mxPoint x="240" y="880" as="targetPoint" />
          </mxGeometry>
        </mxCell>
        <mxCell id="VwMd6SCtrzowL8fCk7NK-60" value="Enter guest credit card" style="text;html=1;strokeColor=none;fillColor=none;align=center;verticalAlign=middle;whiteSpace=wrap;rounded=0;" parent="1" vertex="1">
          <mxGeometry x="275" y="890" width="130" height="30" as="geometry" />
        </mxCell>
        <mxCell id="VwMd6SCtrzowL8fCk7NK-62" value="Enter guest credit card" style="text;html=1;strokeColor=none;fillColor=none;align=center;verticalAlign=middle;whiteSpace=wrap;rounded=0;" parent="1" vertex="1">
          <mxGeometry x="90" y="860" width="130" height="30" as="geometry" />
        </mxCell>
        <mxCell id="VwMd6SCtrzowL8fCk7NK-63" value="" style="endArrow=classic;html=1;rounded=0;" parent="1" edge="1">
          <mxGeometry width="50" height="50" relative="1" as="geometry">
            <mxPoint x="250" y="920" as="sourcePoint" />
            <mxPoint x="420" y="920" as="targetPoint" />
          </mxGeometry>
        </mxCell>
        <mxCell id="VwMd6SCtrzowL8fCk7NK-65" value="" style="endArrow=classic;html=1;rounded=0;" parent="1" edge="1">
          <mxGeometry width="50" height="50" relative="1" as="geometry">
            <mxPoint x="420" y="940" as="sourcePoint" />
            <mxPoint x="1060" y="940" as="targetPoint" />
          </mxGeometry>
        </mxCell>
        <mxCell id="VwMd6SCtrzowL8fCk7NK-67" value="" style="edgeStyle=orthogonalEdgeStyle;rounded=0;orthogonalLoop=1;jettySize=auto;html=1;dashed=1;dashPattern=12 12;endArrow=none;" parent="1" target="VwMd6SCtrzowL8fCk7NK-66" edge="1">
          <mxGeometry relative="1" as="geometry">
            <mxPoint x="720" y="1040" as="targetPoint" />
            <mxPoint x="720" y="120" as="sourcePoint" />
            <Array as="points">
              <mxPoint x="730" y="120" />
            </Array>
          </mxGeometry>
        </mxCell>
        <mxCell id="VwMd6SCtrzowL8fCk7NK-66" value="Record payment ()" style="text;html=1;strokeColor=none;fillColor=none;align=center;verticalAlign=middle;whiteSpace=wrap;rounded=0;" parent="1" vertex="1">
          <mxGeometry x="510" y="910" width="450" height="30" as="geometry" />
        </mxCell>
        <mxCell id="VwMd6SCtrzowL8fCk7NK-69" value="" style="endArrow=classic;html=1;rounded=0;dashed=1;dashPattern=12 12;" parent="1" edge="1">
          <mxGeometry width="50" height="50" relative="1" as="geometry">
            <mxPoint x="1050" y="980" as="sourcePoint" />
            <mxPoint x="420" y="980" as="targetPoint" />
          </mxGeometry>
        </mxCell>
        <mxCell id="VwMd6SCtrzowL8fCk7NK-70" value="Return reference number and confirmation letter&amp;nbsp;" style="text;html=1;strokeColor=none;fillColor=none;align=center;verticalAlign=middle;whiteSpace=wrap;rounded=0;" parent="1" vertex="1">
          <mxGeometry x="540" y="950" width="410" height="30" as="geometry" />
        </mxCell>
      </root>
    </mxGraphModel>
  </diagram>
</mxfile>
